<?xml version="1.0" encoding="iso-8859-1"?>
<!-- Uploaded to: SVG Repo, www.svgrepo.com, Generator: SVG Repo Mixer Tools -->
<svg height="800px" width="800px" version="1.1" id="Layer_1" xmlns="http://www.w3.org/2000/svg" xmlns:xlink="http://www.w3.org/1999/xlink" 
	 viewBox="0 0 512 512" xml:space="preserve">
<polygon style="fill:#2F5E88;" points="55.62,382.383 24.874,477.095 122.061,448.363 112.166,385.209 "/>
<path style="fill:#25BBCC;" d="M452.942,248.687h44.256c0,132.308-106.533,239.74-238.501,241.176L452.942,248.687z"/>
<g>
	<path style="fill:#78E3EC;" d="M254.751,511.998c-0.153,0.003,0.001,0.003,0.17,0.001c0.17,0.001,0.323,0.001,0.17-0.001
		c0.105-0.001,0.124-0.002-0.17-0.002C254.627,511.995,254.645,511.996,254.751,511.998z"/>
	<path style="fill:#78E3EC;" d="M452.942,248.687H14.802c0,132.308,108.143,241.483,240.119,241.18
		C362.515,489.619,452.942,380.853,452.942,248.687z"/>
</g>
<path style="fill:#50D1DD;" d="M258.697,7.512l194.244,241.176h44.256C497.198,116.379,390.666,8.948,258.697,7.512z"/>
<g>
	<path style="fill:#A0F6FA;" d="M255.092,7.505c0.153-0.003-0.001-0.003-0.171-0.002c-0.17-0.001-0.323-0.001-0.171,0.002
		c-0.105,0.001-0.123,0.002,0.171,0.002S255.197,7.507,255.092,7.505z"/>
	<path style="fill:#A0F6FA;" d="M254.921,7.508C122.946,7.204,14.802,116.379,14.802,248.687h438.139
		C452.942,116.522,362.515,7.755,254.921,7.508z"/>
</g>
<path d="M465.392,241.198h-81.669c-0.648-39.692-6.13-78.048-15.659-112.058h53.56c4.392,0,7.952-3.56,7.952-7.952
	c0-4.392-3.559-7.952-7.952-7.952h-58.43c-8.501-25.62-19.419-48.262-32.393-66.429c-2.553-3.574-7.52-4.403-11.092-1.85
	c-3.574,2.552-4.402,7.519-1.85,11.092c11.257,15.763,20.873,35.198,28.589,57.188h-82.495v-73.48c0-4.392-3.559-7.952-7.952-7.952
	s-7.952,3.559-7.952,7.952v73.479h-82.495c7.715-21.989,17.331-41.423,28.589-57.188c2.552-3.573,1.724-8.54-1.85-11.092
	c-3.575-2.552-8.54-1.723-11.092,1.85c-12.974,18.167-23.892,40.81-32.393,66.429H90.378c-4.392,0-7.952,3.559-7.952,7.952
	c0,4.391,3.559,7.952,7.952,7.952h53.56c-9.529,34.009-15.012,72.366-15.66,112.058H46.609c-4.392,0-7.952,3.559-7.952,7.952
	s3.559,7.952,7.952,7.952h81.669c0.648,39.693,6.13,78.048,15.66,112.058h-53.56c-4.392,0-7.952,3.559-7.952,7.952
	s3.559,7.952,7.952,7.952h58.43c8.502,25.624,19.423,48.27,32.4,66.439c1.552,2.172,3.997,3.331,6.478,3.331
	c1.599,0,3.214-0.481,4.615-1.482c3.573-2.553,4.401-7.519,1.849-11.093c-11.26-15.764-20.879-35.203-28.596-57.195h82.495v73.48
	c0,4.392,3.559,7.952,7.952,7.952c4.392,0,7.952-3.559,7.952-7.952v-73.479h82.495c-7.716,21.993-17.336,41.431-28.596,57.195
	c-2.552,3.574-1.724,8.54,1.849,11.093c1.401,1,3.015,1.482,4.615,1.482c2.482,0,4.927-1.159,6.478-3.331
	c12.977-18.169,23.897-40.815,32.4-66.439h58.43c4.392,0,7.952-3.559,7.952-7.952s-3.559-7.952-7.952-7.952h-53.561
	c9.53-34.009,15.013-72.366,15.66-112.058h81.669c4.392,0,7.952-3.559,7.952-7.952S469.784,241.198,465.392,241.198z
	 M351.568,129.14c9.874,33.591,15.58,72.05,16.249,112.058H263.952V129.14H351.568z M160.434,129.14h87.616v112.058H144.185
	C144.854,201.189,150.559,162.731,160.434,129.14z M160.434,369.159c-9.875-33.591-15.58-72.05-16.249-112.058H248.05v112.058
	H160.434z M351.568,369.159h-87.616V257.101h103.865C367.147,297.11,361.442,335.569,351.568,369.159z"/>
<path d="M432.175,72.974C385.118,25.916,322.551,0,256,0S126.884,25.916,79.826,72.974C32.768,120.033,6.851,182.6,6.851,249.151
	c0,49.057,14.197,96.372,41.098,137.102l-30.447,91.335c-0.952,2.857-0.209,6.008,1.921,8.138c2.13,2.129,5.279,2.871,8.138,1.92
	l91.337-30.445c40.731,26.901,88.046,41.098,137.102,41.098c66.55,0,129.117-25.916,176.175-72.974S505.15,315.701,505.15,249.15
	S479.234,120.033,432.175,72.974z M256,482.396c-47.17,0-92.615-14.018-131.425-40.537c-1.338-0.914-2.904-1.387-4.488-1.387
	c-0.844,0-1.693,0.135-2.514,0.408l-79.957,26.652l26.654-79.955c0.786-2.359,0.423-4.949-0.979-7.001
	c-26.521-38.809-40.538-84.255-40.538-131.425C22.754,120.539,127.387,15.904,256,15.904s233.246,104.634,233.246,233.247
	C489.247,377.763,384.613,482.396,256,482.396z"/>
</svg>